<svg width="126" height="35" viewBox="0 0 126 35" fill="none" xmlns="http://www.w3.org/2000/svg">
<path d="M15.54 15.3365C15.092 14.5152 14.476 13.8898 13.692 13.4605C12.908 13.0312 11.9933 12.8165 10.948 12.8165C9.79067 12.8165 8.764 13.0778 7.868 13.6005C6.972 14.1232 6.272 14.8698 5.768 15.8405C5.264 16.8112 5.012 17.9312 5.012 19.2005C5.012 20.5072 5.264 21.6458 5.768 22.6165C6.29067 23.5872 7.00933 24.3338 7.924 24.8565C8.83867 25.3792 9.90267 25.6405 11.116 25.6405C12.6093 25.6405 13.832 25.2485 14.784 24.4645C15.736 23.6618 16.3613 22.5512 16.66 21.1325H9.94V18.1365H20.524V21.5525C20.2627 22.9152 19.7027 24.1752 18.844 25.3325C17.9853 26.4898 16.8747 27.4232 15.512 28.1325C14.168 28.8232 12.656 29.1685 10.976 29.1685C9.09067 29.1685 7.38267 28.7485 5.852 27.9085C4.34 27.0498 3.14533 25.8645 2.268 24.3525C1.40933 22.8405 0.98 21.1232 0.98 19.2005C0.98 17.2778 1.40933 15.5605 2.268 14.0485C3.14533 12.5178 4.34 11.3325 5.852 10.4925C7.38267 9.63382 9.08133 9.20449 10.948 9.20449C13.1507 9.20449 15.064 9.74582 16.688 10.8285C18.312 11.8925 19.432 13.3952 20.048 15.3365H15.54ZM27.3442 15.8965C27.8482 15.0752 28.5015 14.4312 29.3042 13.9645C30.1255 13.4978 31.0589 13.2645 32.1042 13.2645V17.3805H31.0682C29.8362 17.3805 28.9029 17.6698 28.2682 18.2485C27.6522 18.8272 27.3442 19.8352 27.3442 21.2725V29.0005H23.4242V13.4885H27.3442V15.8965ZM41.6325 29.2525C40.1392 29.2525 38.7952 28.9258 37.6005 28.2725C36.4058 27.6005 35.4632 26.6578 34.7725 25.4445C34.1005 24.2312 33.7645 22.8312 33.7645 21.2445C33.7645 19.6578 34.1098 18.2578 34.8005 17.0445C35.5098 15.8312 36.4712 14.8978 37.6845 14.2445C38.8978 13.5725 40.2512 13.2365 41.7445 13.2365C43.2378 13.2365 44.5912 13.5725 45.8045 14.2445C47.0178 14.8978 47.9698 15.8312 48.6605 17.0445C49.3698 18.2578 49.7245 19.6578 49.7245 21.2445C49.7245 22.8312 49.3605 24.2312 48.6325 25.4445C47.9232 26.6578 46.9525 27.6005 45.7205 28.2725C44.5072 28.9258 43.1445 29.2525 41.6325 29.2525ZM41.6325 25.8365C42.3418 25.8365 43.0045 25.6685 43.6205 25.3325C44.2552 24.9778 44.7592 24.4552 45.1325 23.7645C45.5058 23.0738 45.6925 22.2338 45.6925 21.2445C45.6925 19.7698 45.3005 18.6405 44.5165 17.8565C43.7512 17.0538 42.8085 16.6525 41.6885 16.6525C40.5685 16.6525 39.6258 17.0538 38.8605 17.8565C38.1138 18.6405 37.7405 19.7698 37.7405 21.2445C37.7405 22.7192 38.1045 23.8578 38.8325 24.6605C39.5792 25.4445 40.5125 25.8365 41.6325 25.8365ZM74.104 13.4885L69.568 29.0005H65.34L62.512 18.1645L59.684 29.0005H55.428L50.864 13.4885H54.84L57.584 25.3045L60.552 13.4885H64.696L67.608 25.2765L70.352 13.4885H74.104ZM80.789 16.7085V24.2125C80.789 24.7352 80.9103 25.1178 81.153 25.3605C81.4143 25.5845 81.8436 25.6965 82.441 25.6965H84.261V29.0005H81.797C78.493 29.0005 76.841 27.3952 76.841 24.1845V16.7085H74.993V13.4885H76.841V9.65249H80.789V13.4885H84.261V16.7085H80.789ZM95.8164 13.2645C96.9924 13.2645 98.0378 13.5258 98.9524 14.0485C99.8671 14.5525 100.576 15.3085 101.08 16.3165C101.603 17.3058 101.864 18.5005 101.864 19.9005V29.0005H97.9444V20.4325C97.9444 19.2005 97.6364 18.2578 97.0204 17.6045C96.4044 16.9325 95.5644 16.5965 94.5004 16.5965C93.4178 16.5965 92.5591 16.9325 91.9244 17.6045C91.3084 18.2578 91.0004 19.2005 91.0004 20.4325V29.0005H87.0804V8.28049H91.0004V15.4205C91.5044 14.7485 92.1764 14.2258 93.0164 13.8525C93.8564 13.4605 94.7898 13.2645 95.8164 13.2645Z" fill="#131316"/>
<path d="M112.417 9.57796L122.776 3.00026" stroke="#4891FF" stroke-width="6" stroke-linecap="round"/>
</svg>
