<svg width="126" height="35" viewBox="0 0 126 35" fill="none" xmlns="http://www.w3.org/2000/svg">
<path d="M15.54 15.3364C15.092 14.5151 14.476 13.8897 13.692 13.4604C12.908 13.0311 11.9933 12.8164 10.948 12.8164C9.79067 12.8164 8.764 13.0777 7.868 13.6004C6.972 14.1231 6.272 14.8697 5.768 15.8404C5.264 16.8111 5.012 17.9311 5.012 19.2004C5.012 20.5071 5.264 21.6457 5.768 22.6164C6.29067 23.5871 7.00933 24.3337 7.924 24.8564C8.83867 25.3791 9.90267 25.6404 11.116 25.6404C12.6093 25.6404 13.832 25.2484 14.784 24.4644C15.736 23.6617 16.3613 22.5511 16.66 21.1324H9.94V18.1364H20.524V21.5524C20.2627 22.9151 19.7027 24.1751 18.844 25.3324C17.9853 26.4897 16.8747 27.4231 15.512 28.1324C14.168 28.8231 12.656 29.1684 10.976 29.1684C9.09067 29.1684 7.38267 28.7484 5.852 27.9084C4.34 27.0497 3.14533 25.8644 2.268 24.3524C1.40933 22.8404 0.98 21.1231 0.98 19.2004C0.98 17.2777 1.40933 15.5604 2.268 14.0484C3.14533 12.5177 4.34 11.3324 5.852 10.4924C7.38267 9.63373 9.08133 9.2044 10.948 9.2044C13.1507 9.2044 15.064 9.74573 16.688 10.8284C18.312 11.8924 19.432 13.3951 20.048 15.3364H15.54ZM27.3442 15.8964C27.8482 15.0751 28.5015 14.4311 29.3042 13.9644C30.1255 13.4977 31.0589 13.2644 32.1042 13.2644V17.3804H31.0682C29.8362 17.3804 28.9029 17.6697 28.2682 18.2484C27.6522 18.8271 27.3442 19.8351 27.3442 21.2724V29.0004H23.4242V13.4884H27.3442V15.8964ZM41.6325 29.2524C40.1392 29.2524 38.7952 28.9257 37.6005 28.2724C36.4058 27.6004 35.4632 26.6577 34.7725 25.4444C34.1005 24.2311 33.7645 22.8311 33.7645 21.2444C33.7645 19.6577 34.1098 18.2577 34.8005 17.0444C35.5098 15.8311 36.4712 14.8977 37.6845 14.2444C38.8978 13.5724 40.2512 13.2364 41.7445 13.2364C43.2378 13.2364 44.5912 13.5724 45.8045 14.2444C47.0178 14.8977 47.9698 15.8311 48.6605 17.0444C49.3698 18.2577 49.7245 19.6577 49.7245 21.2444C49.7245 22.8311 49.3605 24.2311 48.6325 25.4444C47.9232 26.6577 46.9525 27.6004 45.7205 28.2724C44.5072 28.9257 43.1445 29.2524 41.6325 29.2524ZM41.6325 25.8364C42.3418 25.8364 43.0045 25.6684 43.6205 25.3324C44.2552 24.9777 44.7592 24.4551 45.1325 23.7644C45.5058 23.0737 45.6925 22.2337 45.6925 21.2444C45.6925 19.7697 45.3005 18.6404 44.5165 17.8564C43.7512 17.0537 42.8085 16.6524 41.6885 16.6524C40.5685 16.6524 39.6258 17.0537 38.8605 17.8564C38.1138 18.6404 37.7405 19.7697 37.7405 21.2444C37.7405 22.7191 38.1045 23.8577 38.8325 24.6604C39.5792 25.4444 40.5125 25.8364 41.6325 25.8364ZM74.104 13.4884L69.568 29.0004H65.34L62.512 18.1644L59.684 29.0004H55.428L50.864 13.4884H54.84L57.584 25.3044L60.552 13.4884H64.696L67.608 25.2764L70.352 13.4884H74.104ZM80.789 16.7084V24.2124C80.789 24.7351 80.9103 25.1177 81.153 25.3604C81.4143 25.5844 81.8436 25.6964 82.441 25.6964H84.261V29.0004H81.797C78.493 29.0004 76.841 27.3951 76.841 24.1844V16.7084H74.993V13.4884H76.841V9.6524H80.789V13.4884H84.261V16.7084H80.789ZM95.8164 13.2644C96.9924 13.2644 98.0378 13.5257 98.9524 14.0484C99.8671 14.5524 100.576 15.3084 101.08 16.3164C101.603 17.3057 101.864 18.5004 101.864 19.9004V29.0004H97.9444V20.4324C97.9444 19.2004 97.6364 18.2577 97.0204 17.6044C96.4044 16.9324 95.5644 16.5964 94.5004 16.5964C93.4178 16.5964 92.5591 16.9324 91.9244 17.6044C91.3084 18.2577 91.0004 19.2004 91.0004 20.4324V29.0004H87.0804V8.2804H91.0004V15.4204C91.5044 14.7484 92.1764 14.2257 93.0164 13.8524C93.8564 13.4604 94.7898 13.2644 95.8164 13.2644Z" fill="white"/>
<path d="M112.417 9.57809L122.776 3.00039" stroke="#4891FF" stroke-width="6" stroke-linecap="round"/>
</svg>
